<?xml version="1.0" encoding="UTF-8" standalone="no"?>
<svg
   xmlns:dc="http://purl.org/dc/elements/1.1/"
   xmlns:cc="http://creativecommons.org/ns#"
   xmlns:rdf="http://www.w3.org/1999/02/22-rdf-syntax-ns#"
   xmlns:svg="http://www.w3.org/2000/svg"
   xmlns="http://www.w3.org/2000/svg"
   xmlns:sodipodi="http://sodipodi.sourceforge.net/DTD/sodipodi-0.dtd"
   xmlns:inkscape="http://www.inkscape.org/namespaces/inkscape"
   version="1.1"
   id="svg2"
   xml:space="preserve"
   width="250"
   height="250"
   viewBox="0 0 250 250"
   sodipodi:docname="logo.svg"
   inkscape:version="1.0.1 (3bc2e813f5, 2020-09-07)"
   inkscape:export-filename="logo.png"
   inkscape:export-xdpi="98.303993"
   inkscape:export-ydpi="98.303993"><metadata
     id="metadata8"><rdf:RDF><cc:Work
         rdf:about=""><dc:format>image/svg+xml</dc:format><dc:type
           rdf:resource="http://purl.org/dc/dcmitype/StillImage" /><dc:title /></cc:Work></rdf:RDF></metadata><defs
     id="defs6" /><sodipodi:namedview
     pagecolor="#ffffff"
     bordercolor="#666666"
     borderopacity="1"
     objecttolerance="10"
     gridtolerance="10"
     guidetolerance="10"
     inkscape:pageopacity="0"
     inkscape:pageshadow="2"
     inkscape:window-width="1718"
     inkscape:window-height="1368"
     id="namedview4"
     showgrid="false"
     fit-margin-top="20"
     fit-margin-left="20"
     fit-margin-right="20"
     fit-margin-bottom="20"
     inkscape:zoom="4"
     inkscape:cx="309.85465"
     inkscape:cy="124.38111"
     inkscape:window-x="1713"
     inkscape:window-y="0"
     inkscape:window-maximized="0"
     inkscape:current-layer="g10"
     inkscape:document-rotation="0"
     inkscape:snap-text-baseline="false" /><g
     id="g10"
     inkscape:groupmode="layer"
     inkscape:label="ink_ext_XXXXXX"
     transform="matrix(1.3333333,0,0,-1.3333333,5.8128644,690.39986)"><rect
       style="fill:#333277;fill-opacity:1;stroke-width:6.12864"
       id="rect934"
       width="187.45312"
       height="187.3125"
       x="-4.3127785"
       y="-517.79993"
       transform="scale(1,-1)"
       ry="24.75" /><path
       inkscape:connector-curvature="0"
       id="path18"
       style="fill:none;stroke:#ffffff;stroke-width:0.25;stroke-linecap:butt;stroke-linejoin:miter;stroke-miterlimit:10;stroke-dasharray:none;stroke-opacity:1"
       d="m 4.9418194,486.20403 v -91.083" /><path
       inkscape:connector-curvature="0"
       id="path20"
       style="fill:none;stroke:#ffffff;stroke-width:0.25;stroke-linecap:butt;stroke-linejoin:miter;stroke-miterlimit:10;stroke-dasharray:none;stroke-opacity:1"
       d="m 21.275419,482.61441 v -60.667" /><path
       inkscape:connector-curvature="0"
       id="path22"
       style="fill:none;stroke:#ffffff;stroke-width:0.25;stroke-linecap:butt;stroke-linejoin:miter;stroke-miterlimit:10;stroke-dasharray:none;stroke-opacity:1"
       d="m 37.400419,471.53803 v -45.167" /><path
       inkscape:connector-curvature="0"
       id="path110"
       style="fill:#d16245;fill-opacity:1;fill-rule:nonzero;stroke:none;stroke-width:0.1"
       d="M 42.025419,482.20403 H 5.3590194 c -0.5523,0 -1,0.448 -1,1 v 3 c 0,0.553 0.4477,1 1,1 H 42.025419 c 0.552,0 1,-0.447 1,-1 v -3 c 0,-0.552 -0.448,-1 -1,-1" /><path
       inkscape:connector-curvature="0"
       id="path112"
       style="fill:#71c839;fill-opacity:1;fill-rule:nonzero;stroke:none;stroke-width:0.1"
       d="m 58.358419,474.87103 h -36.6666 c -0.5519,0 -1,0.448 -1,1 v 3 c 0,0.552 0.4481,1 1,1 h 36.6666 c 0.553,0 1,-0.448 1,-1 v -3 c 0,-0.552 -0.447,-1 -1,-1" /><path
       inkscape:connector-curvature="0"
       id="path114"
       style="fill:#ffffff;fill-opacity:1;fill-rule:nonzero;stroke:none;stroke-width:0.1"
       d="M 136.85842,474.87103 H 62.358419 c -0.552,0 -1,0.448 -1,1 v 3 c 0,0.552 0.448,1 1,1 h 74.500001 c 0.553,0 1,-0.448 1,-1 v -3 c 0,-0.552 -0.447,-1 -1,-1" /><path
       inkscape:connector-curvature="0"
       id="path116"
       style="fill:#ffffff;fill-opacity:1;fill-rule:nonzero;stroke:none;stroke-width:0.1"
       d="m 74.692419,467.53803 h -36.667 c -0.552,0 -1,0.447 -1,1 v 3 c 0,0.552 0.448,1 1,1 h 36.667 c 0.552,0 1,-0.448 1,-1 v -3 c 0,-0.553 -0.448,-1 -1,-1" /><path
       inkscape:connector-curvature="0"
       id="path118"
       style="fill:#3e6ebf;fill-opacity:1;fill-rule:nonzero;stroke:none;stroke-width:0.1"
       d="M 105.85842,467.53803 H 78.692419 c -0.553,0 -1,0.447 -1,1 v 3 c 0,0.552 0.447,1 1,1 h 27.166001 c 0.553,0 1,-0.448 1,-1 v -3 c 0,-0.553 -0.447,-1 -1,-1" /><path
       inkscape:connector-curvature="0"
       id="path120"
       style="fill:#d16245;fill-opacity:1;fill-rule:nonzero;stroke:none;stroke-width:0.1"
       d="m 136.85842,467.53803 h -27.166 c -0.553,0 -1,0.447 -1,1 v 3 c 0,0.552 0.447,1 1,1 h 27.166 c 0.553,0 1,-0.448 1,-1 v -3 c 0,-0.553 -0.447,-1 -1,-1" /><path
       inkscape:connector-curvature="0"
       id="path122"
       style="fill:#ffffff;fill-opacity:1;fill-rule:nonzero;stroke:none;stroke-width:0.1"
       d="m 74.692419,460.20403 h -36.667 c -0.552,0 -1,0.448 -1,1 v 3 c 0,0.553 0.448,1 1,1 h 36.667 c 0.552,0 1,-0.447 1,-1 v -3 c 0,-0.552 -0.448,-1 -1,-1" /><path
       inkscape:connector-curvature="0"
       id="path124"
       style="fill:#ffffff;fill-opacity:1;fill-rule:nonzero;stroke:none;stroke-width:0.1"
       d="m 41.025419,423.87103 h -3 c -0.552,0 -1,0.448 -1,1 v 3 c 0,0.552 0.448,1 1,1 h 3 c 0.552,0 1,-0.448 1,-1 v -3 c 0,-0.552 -0.448,-1 -1,-1" /><path
       inkscape:connector-curvature="0"
       id="path126"
       style="fill:#3e6ebf;fill-opacity:1;fill-rule:nonzero;stroke:none;stroke-width:0.1"
       d="M 115.35842,460.20403 H 78.692419 c -0.553,0 -1,0.448 -1,1 v 3 c 0,0.553 0.447,1 1,1 h 36.666001 c 0.553,0 1,-0.447 1,-1 v -3 c 0,-0.552 -0.447,-1 -1,-1" /><path
       inkscape:connector-curvature="0"
       id="path128"
       style="fill:#6348a7;fill-opacity:1;fill-rule:nonzero;stroke:none;stroke-width:0.1"
       d="m 89.692419,452.87103 h -36.667 c -0.552,0 -1,0.448 -1,1 v 3 c 0,0.552 0.448,1 1,1 h 36.667 c 0.552,0 1,-0.448 1,-1 v -3 c 0,-0.552 -0.448,-1 -1,-1" /><path
       inkscape:connector-curvature="0"
       id="path130"
       style="fill:#71c839;fill-opacity:1;fill-rule:nonzero;stroke:none;stroke-width:0.1"
       d="M 116.02542,452.87103 H 93.692417 c -0.552998,0 -0.999998,0.448 -0.999998,1 v 3 c 0,0.552 0.447,1 0.999998,1 h 22.333003 c 0.552,0 1,-0.448 1,-1 v -3 c 0,-0.552 -0.448,-1 -1,-1" /><path
       inkscape:connector-curvature="0"
       id="path132"
       style="fill:#d16245;fill-opacity:1;fill-rule:nonzero;stroke:none;stroke-width:0.1"
       d="m 142.15042,452.87103 h -22.333 c -0.553,0 -1,0.448 -1,1 v 3 c 0,0.552 0.447,1 1,1 h 22.333 c 0.552,0 1,-0.448 1,-1 v -3 c 0,-0.552 -0.448,-1 -1,-1" /><path
       inkscape:connector-curvature="0"
       id="path134"
       style="fill:#6348a7;fill-opacity:1;fill-rule:nonzero;stroke:none;stroke-width:0.1"
       d="m 89.692419,445.53803 h -36.667 c -0.552,0 -1,0.447 -1,1 v 3 c 0,0.552 0.448,1 1,1 h 36.667 c 0.552,0 1,-0.448 1,-1 v -3 c 0,-0.553 -0.448,-1 -1,-1" /><path
       inkscape:connector-curvature="0"
       id="path136"
       style="fill:#71c839;fill-opacity:1;fill-rule:nonzero;stroke:none;stroke-width:0.1"
       d="M 137.69242,445.53803 H 93.692417 c -0.552998,0 -0.999998,0.447 -0.999998,1 v 3 c 0,0.552 0.447,1 0.999998,1 h 44.000003 c 0.552,0 1,-0.448 1,-1 v -3 c 0,-0.553 -0.448,-1 -1,-1" /><path
       inkscape:connector-curvature="0"
       id="path138"
       style="fill:#6348a7;fill-opacity:1;fill-rule:nonzero;stroke:none;stroke-width:0.1"
       d="m 89.692419,438.20403 h -36.667 c -0.552,0 -1,0.448 -1,1 v 3 c 0,0.553 0.448,1 1,1 h 36.667 c 0.552,0 1,-0.447 1,-1 v -3 c 0,-0.552 -0.448,-1 -1,-1" /><path
       inkscape:connector-curvature="0"
       id="path140"
       style="fill:#71c839;fill-opacity:1;fill-rule:nonzero;stroke:none;stroke-width:0.1"
       d="M 130.35842,438.20403 H 93.692417 c -0.552998,0 -0.999998,0.448 -0.999998,1 v 3 c 0,0.553 0.447,1 0.999998,1 h 36.666003 c 0.553,0 1,-0.447 1,-1 v -3 c 0,-0.552 -0.447,-1 -1,-1" /><path
       inkscape:connector-curvature="0"
       id="path142"
       style="fill:#6348a7;fill-opacity:1;fill-rule:nonzero;stroke:none;stroke-width:0.1"
       d="m 78.400419,430.87103 h -25.375 c -0.552,0 -1,0.448 -1,1 v 3 c 0,0.552 0.448,1 1,1 h 25.375 c 0.552,0 1,-0.448 1,-1 v -3 c 0,-0.552 -0.448,-1 -1,-1" /><path
       inkscape:connector-curvature="0"
       id="path144"
       style="fill:#71c839;fill-opacity:1;fill-rule:nonzero;stroke:none;stroke-width:0.1"
       d="M 130.35842,430.87103 H 93.692417 c -0.552998,0 -0.999998,0.448 -0.999998,1 v 3 c 0,0.552 0.447,1 0.999998,1 h 36.666003 c 0.553,0 1,-0.448 1,-1 v -3 c 0,-0.552 -0.447,-1 -1,-1" /><path
       inkscape:connector-curvature="0"
       id="path248"
       style="fill:#71c839;fill-opacity:1;fill-rule:nonzero;stroke:none;stroke-width:0.1"
       d="m 11.266419,504.35541 c 0,-1.928 -1.5628996,-3.491 -3.4909996,-3.491 -1.9281,0 -3.491,1.563 -3.491,3.491 0,1.928 1.5629,3.491 3.491,3.491 1.9281,0 3.4909996,-1.563 3.4909996,-3.491" /><path
       inkscape:connector-curvature="0"
       id="path250"
       style="fill:#fbc408;fill-opacity:1;fill-rule:nonzero;stroke:none;stroke-width:0.1"
       d="m 21.522719,504.35541 c 0,-1.928 -1.5633,-3.491 -3.4914,-3.491 -1.9282,0 -3.4914,1.563 -3.4914,3.491 0,1.928 1.5632,3.491 3.4914,3.491 1.9281,0 3.4914,-1.563 3.4914,-3.491" /><path
       inkscape:connector-curvature="0"
       id="path252"
       style="fill:#ef2a67;fill-opacity:1;fill-rule:nonzero;stroke:none;stroke-width:0.1"
       d="m 31.778419,504.35541 c 0,-1.928 -1.563,-3.491 -3.4913,-3.491 -1.9281,0 -3.4914,1.563 -3.4914,3.491 0,1.928 1.5633,3.491 3.4914,3.491 1.9283,0 3.4913,-1.563 3.4913,-3.491" /><path
       inkscape:connector-curvature="0"
       id="path316"
       style="fill:#ffffff;fill-opacity:1;fill-rule:nonzero;stroke:none;stroke-width:0.1"
       d="m 167.46879,434.49428 -1.062,3.069 c -0.068,0.198 -0.348,0.198 -0.416,0 l -1.063,-3.069 c -0.023,-0.066 -0.076,-0.118 -0.142,-0.138 l -2.813,-0.877 c -0.206,-0.065 -0.206,-0.356 0,-0.42 l 2.813,-0.877 c 0.066,-0.021 0.119,-0.072 0.142,-0.138 l 1.063,-3.07 c 0.068,-0.197 0.348,-0.197 0.416,0 l 1.062,3.07 c 0.023,0.066 0.076,0.117 0.143,0.138 l 2.812,0.877 c 0.207,0.064 0.207,0.355 0,0.42 l -2.812,0.877 c -0.067,0.02 -0.12,0.072 -0.143,0.138" /><path
       inkscape:connector-curvature="0"
       id="path320"
       style="fill:#ffffff;fill-opacity:1;fill-rule:nonzero;stroke:none;stroke-width:0.1"
       d="m 109.63493,511.80587 -1.4031,4.053 c -0.0902,0.26 -0.4582,0.26 -0.5484,0 l -1.4031,-4.053 c -0.0301,-0.087 -0.1,-0.154 -0.1883,-0.182 l -3.7129,-1.158 c -0.2723,-0.085 -0.2723,-0.47 0,-0.555 l 3.7129,-1.157 c 0.0883,-0.027 0.1582,-0.096 0.1883,-0.182 l 1.4031,-4.053 c 0.0902,-0.261 0.4582,-0.261 0.5484,0 l 1.4031,4.053 c 0.0301,0.086 0.1,0.155 0.1883,0.182 l 3.7129,1.157 c 0.2723,0.085 0.2723,0.47 0,0.555 l -3.7129,1.158 c -0.0883,0.028 -0.1582,0.095 -0.1883,0.182" /><path
       inkscape:connector-curvature="0"
       id="path320-3"
       style="fill:#ffffff;fill-opacity:1;fill-rule:nonzero;stroke:none;stroke-width:0.09999999"
       d="m 168.52053,477.78264 -1.4031,4.05301 c -0.0902,0.25999 -0.4582,0.25999 -0.5484,0 l -1.4031,-4.05301 c -0.0301,-0.087 -0.1,-0.154 -0.1883,-0.18199 l -3.7129,-1.15801 c -0.2723,-0.085 -0.2723,-0.46999 0,-0.555 l 3.7129,-1.157 c 0.0883,-0.027 0.1582,-0.096 0.1883,-0.182 l 1.4031,-4.053 c 0.0902,-0.261 0.4582,-0.261 0.5484,0 l 1.4031,4.053 c 0.0301,0.086 0.1,0.155 0.1883,0.182 l 3.7129,1.157 c 0.2723,0.085 0.2723,0.47001 0,0.555 l -3.7129,1.15801 c -0.0883,0.028 -0.1582,0.095 -0.1883,0.18199" /><path
       inkscape:connector-curvature="0"
       id="path320-6"
       style="fill:#ffffff;fill-opacity:1;fill-rule:nonzero;stroke:none;stroke-width:0.0613305"
       d="m 157.84245,451.43683 -0.88904,2.40602 c -0.0572,0.15434 -0.29033,0.15434 -0.34748,0 l -0.88904,-2.40602 c -0.0191,-0.0516 -0.0634,-0.0914 -0.11932,-0.10803 l -2.35258,-0.68744 c -0.17254,-0.0505 -0.17254,-0.279 0,-0.32947 l 2.35258,-0.68684 c 0.0559,-0.016 0.10024,-0.057 0.11932,-0.10804 l 0.88904,-2.40601 c 0.0572,-0.15494 0.29032,-0.15494 0.34748,0 l 0.88904,2.40601 c 0.0191,0.0511 0.0634,0.092 0.11931,0.10804 l 2.35258,0.68684 c 0.17254,0.0505 0.17254,0.27902 0,0.32947 l -2.35258,0.68744 c -0.0559,0.0166 -0.10024,0.0564 -0.11931,0.10803" /><path
       inkscape:connector-curvature="0"
       id="path320-7"
       style="fill:#ffffff;fill-opacity:1;fill-rule:nonzero;stroke:none;stroke-width:0.0613305"
       d="m 161.55008,492.22074 -0.88904,2.40602 c -0.0572,0.15434 -0.29033,0.15434 -0.34748,0 l -0.88904,-2.40602 c -0.0191,-0.0517 -0.0634,-0.0914 -0.11932,-0.10803 l -2.35258,-0.68745 c -0.17254,-0.0505 -0.17254,-0.279 0,-0.32946 l 2.35258,-0.68683 c 0.0559,-0.016 0.10024,-0.057 0.11932,-0.10804 l 0.88904,-2.40601 c 0.0572,-0.15493 0.29032,-0.15493 0.34748,0 l 0.88904,2.40601 c 0.0191,0.0511 0.0634,0.092 0.11931,0.10804 l 2.35258,0.68683 c 0.17254,0.0505 0.17254,0.27902 0,0.32946 l -2.35258,0.68745 c -0.0559,0.0166 -0.10024,0.0564 -0.11931,0.10803" /><path
       inkscape:connector-curvature="0"
       id="path320-5"
       style="fill:#ffffff;fill-opacity:1;fill-rule:nonzero;stroke:none;stroke-width:0.1"
       d="m 10.325831,442.36929 -1.4031001,4.05301 c -0.0902,0.25999 -0.4582,0.25999 -0.5484,0 l -1.4031,-4.05301 c -0.0301,-0.087 -0.1,-0.154 -0.1883,-0.18199 l -3.7128995,-1.15801 c -0.2723,-0.085 -0.2723,-0.46999 0,-0.555 l 3.7128995,-1.157 c 0.0883,-0.027 0.1582,-0.096 0.1883,-0.182 l 1.4031,-4.053 c 0.0902,-0.261 0.4582,-0.261 0.5484,0 l 1.4031001,4.053 c 0.0301,0.086 0.1,0.155 0.188299,0.182 l 3.712899,1.157 c 0.2723,0.085 0.2723,0.47001 0,0.555 l -3.712899,1.15801 c -0.0883,0.028 -0.158199,0.095 -0.188299,0.18199" /><path
       inkscape:connector-curvature="0"
       id="path320-35"
       style="fill:#ffffff;fill-opacity:1;fill-rule:nonzero;stroke:none;stroke-width:0.0567816"
       d="m 10.527658,409.14473 -0.824782,2.22301 c -0.05302,0.1426 -0.269343,0.1426 -0.322365,0 l -0.824782,-2.22301 c -0.01769,-0.0477 -0.05878,-0.0845 -0.110688,-0.0998 l -2.182549,-0.63515 c -0.160065,-0.0466 -0.160065,-0.25779 0,-0.30441 l 2.182549,-0.6346 c 0.0519,-0.0148 0.09299,-0.0526 0.110688,-0.0998 l 0.824782,-2.22305 c 0.05302,-0.14316 0.269343,-0.14316 0.322365,0 l 0.824782,2.22301 c 0.01769,0.0472 0.05878,0.085 0.110688,0.0998 l 2.182549,0.6346 c 0.160066,0.0466 0.160066,0.25779 0,0.30441 l -2.182549,0.63515 c -0.05191,0.0154 -0.09299,0.0521 -0.110688,0.0998" /><path
       inkscape:connector-curvature="0"
       id="path320-62"
       style="fill:#ffffff;fill-opacity:1;fill-rule:nonzero;stroke:none;stroke-width:0.058952"
       d="m 14.667807,475.83658 -0.88904,2.22301 c -0.05715,0.1426 -0.290327,0.1426 -0.34748,0 l -0.889039,-2.22301 c -0.01907,-0.0477 -0.06336,-0.0845 -0.119312,-0.0998 l -2.352588,-0.63515 c -0.1725358,-0.0466 -0.1725358,-0.25779 0,-0.30441 l 2.352588,-0.6346 c 0.05595,-0.0148 0.100239,-0.0526 0.119312,-0.0998 l 0.889039,-2.22301 c 0.05715,-0.14316 0.290327,-0.14316 0.34748,0 l 0.88904,2.22301 c 0.01907,0.0472 0.06336,0.085 0.119312,0.0998 l 2.352588,0.6346 c 0.172538,0.0466 0.172538,0.25779 0,0.30441 l -2.352588,0.63515 c -0.05595,0.0154 -0.10024,0.0521 -0.119312,0.0998" /><g
       transform="matrix(0.27755558,0,0,-0.27755558,-22.385863,462.39475)"
       id="draw"
       style="fill:#ffffff"><g
         id="g37"
         style="fill:#ffffff"><path
           inkscape:connector-curvature="0"
           class="st1"
           d="m 152.6,215.1 c 1.7,4.4 3.7,7.9 5.9,10.5 3.9,4.6 8.8,6.8 14.7,6.8 3.2,0 5.9,-1 8.2,-3 2.3,-2 3.5,-4.7 3.5,-8.3 0,-3.2 -1.2,-6 -3.5,-8.3 -1.5,-1.5 -4.7,-3.7 -9.6,-6.7 l -8.5,-5.2 c -2.6,-1.6 -4.6,-3.2 -6.1,-4.8 -2.8,-3.1 -4.2,-6.5 -4.2,-10.2 0,-4.9 1.7,-9 5,-12.3 3.3,-3.3 7.8,-4.9 13.3,-4.9 2.3,0 5,0.5 8.2,1.6 3.2,1.1 5,1.6 5.5,1.6 1.2,0 2.1,-0.3 2.6,-0.9 0.5,-0.6 0.8,-1.4 1.1,-2.4 h 2 l 2.2,20.8 h -2.4 c -1.6,-6.3 -4.2,-10.7 -7.8,-13.1 -3.6,-2.5 -7.1,-3.7 -10.6,-3.7 -2.7,0 -5.1,0.8 -7.1,2.4 -2,1.6 -3,3.8 -3,6.6 0,2.5 0.8,4.7 2.3,6.4 1.6,1.8 4,3.7 7.2,5.7 l 8.7,5.3 c 5.5,3.3 9.3,6.4 11.6,9.1 2.2,2.8 3.3,6.1 3.3,9.9 0,5.1 -2,9.4 -5.9,12.9 -3.9,3.4 -9,5.2 -15.1,5.2 -3.1,0 -6.3,-0.6 -9.6,-1.7 -3.4,-1.1 -5.3,-1.7 -5.8,-1.7 -1.2,0 -2,0.4 -2.4,1.1 -0.4,0.7 -0.7,1.5 -0.8,2.2 h -2.2 l -3,-20.8 h 2.3 z"
           id="path7"
           style="fill:#ffffff" /><path
           inkscape:connector-curvature="0"
           class="st1"
           d="m 192.2,192.3 h 20.5 v 1.3 c -1.6,0 -2.8,0.2 -3.6,0.4 -1.5,0.4 -2.2,1.3 -2.2,2.5 0,0.5 0.1,0.9 0.2,1.4 0.2,0.5 0.5,1.2 0.9,2.1 l 11.2,23.9 9.3,-24.1 c 0.1,-0.3 0.3,-0.8 0.5,-1.8 0.2,-0.9 0.3,-1.5 0.3,-1.9 0,-0.8 -0.3,-1.5 -0.9,-1.9 -0.6,-0.4 -1.3,-0.6 -2.2,-0.7 l -1.5,-0.1 v -1.3 H 238 v 1.3 c -1.3,0.2 -2.3,0.6 -3,1.4 -0.7,0.8 -1.2,1.8 -1.7,3.2 L 218,238 c -2.7,6.9 -5.2,11.9 -7.6,15 -2.4,3.1 -5.5,4.6 -9.2,4.6 -1.8,0 -3.5,-0.4 -5.1,-1.3 -1.6,-0.9 -2.4,-2.3 -2.4,-4.3 0,-1.3 0.5,-2.3 1.4,-3.1 0.9,-0.8 2.1,-1.2 3.6,-1.2 0.8,0 2.1,0.3 3.7,0.9 1.6,0.6 2.8,0.9 3.5,0.9 1.8,0 3.7,-2.2 5.7,-6.5 2,-4.3 3,-7.2 3,-8.6 0,-0.3 0,-0.6 -0.1,-1 -0.1,-0.4 -0.2,-0.8 -0.3,-1.1 l -15.3,-32.6 c -1.1,-2.4 -2.1,-3.9 -2.9,-4.7 -0.8,-0.7 -2,-1.2 -3.7,-1.5 v -1.2 z"
           id="path9"
           style="fill:#ffffff" /><path
           inkscape:connector-curvature="0"
           class="st1"
           d="m 239.2,221.1 h 1.6 c 0.7,3.4 1.7,6 3,7.8 2.3,3.3 5.6,5 9.9,5 2.4,0 4.3,-0.6 5.7,-1.9 1.4,-1.2 2.1,-2.8 2.1,-4.8 0,-1.3 -0.4,-2.5 -1.2,-3.6 -0.8,-1.2 -2.2,-2.3 -4.3,-3.4 l -5.4,-2.9 c -4,-2 -6.9,-3.9 -8.8,-5.9 -1.9,-2 -2.8,-4.3 -2.8,-7.1 0,-3.3 1.3,-6.1 3.9,-8.2 2.6,-2.1 5.8,-3.2 9.8,-3.2 1.7,0 3.6,0.3 5.7,0.9 2.1,0.6 3.2,0.9 3.5,0.9 0.6,0 1,-0.1 1.3,-0.2 0.3,-0.1 0.5,-0.4 0.7,-0.7 h 1.2 l 0.3,12.5 h -1.5 c -0.6,-2.9 -1.5,-5.1 -2.6,-6.7 -2,-3 -4.9,-4.5 -8.7,-4.5 -2.3,0 -4,0.6 -5.3,1.9 -1.3,1.3 -1.9,2.8 -1.9,4.5 0,2.7 2.2,5.2 6.7,7.3 l 6.4,3.2 c 6.9,3.5 10.3,7.5 10.3,12.1 0,3.5 -1.4,6.4 -4.3,8.6 -2.9,2.2 -6.6,3.4 -11.2,3.4 -1.9,0 -4.1,-0.3 -6.6,-0.9 -2.5,-0.6 -3.9,-0.9 -4.4,-0.9 -0.4,0 -0.7,0.1 -1,0.4 -0.3,0.3 -0.5,0.6 -0.7,0.9 h -1.3 v -14.5 z"
           id="path11"
           style="fill:#ffffff" /><path
           inkscape:connector-curvature="0"
           class="st1"
           d="m 294.8,195.9 v 3.1 h -10.2 l -0.1,24.6 c 0,2.2 0.2,3.8 0.6,4.9 0.8,2 2.4,2.9 4.7,2.9 1.2,0 2.2,-0.2 3.1,-0.7 0.9,-0.5 1.9,-1.3 3,-2.3 l 1.3,0.9 -1.1,1.3 c -1.7,2 -3.6,3.4 -5.5,4.2 -1.9,0.8 -3.8,1.2 -5.6,1.2 -3.9,0 -6.6,-1.5 -8,-4.5 -0.8,-1.6 -1.1,-3.9 -1.1,-6.7 v -25.9 h -5.4 c -0.2,-0.1 -0.3,-0.2 -0.4,-0.3 -0.1,-0.1 -0.1,-0.2 -0.1,-0.3 0,-0.3 0.1,-0.5 0.2,-0.7 0.1,-0.2 0.6,-0.5 1.4,-1.1 2.3,-1.6 3.9,-2.9 5,-3.9 1,-1 3.4,-3.7 7.1,-8 0.4,0 0.7,0 0.8,0.1 0.1,0.1 0.1,0.3 0.1,0.6 v 10.5 h 10.2 z"
           id="path13"
           style="fill:#ffffff" /><path
           inkscape:connector-curvature="0"
           class="st1"
           d="m 330.7,199.2 c 3.1,2.8 4.6,6.7 4.6,11.8 h -27.5 c 0.3,6.6 1.8,11.4 4.5,14.4 2.7,3 6,4.5 9.7,4.5 3,0 5.6,-0.8 7.7,-2.3 2.1,-1.6 4,-3.8 5.8,-6.6 l 1.5,0.5 c -1.2,3.6 -3.4,7 -6.6,10 -3.2,3.1 -7.2,4.6 -11.9,4.6 -5.4,0 -9.6,-2 -12.6,-6 -3,-4 -4.4,-8.7 -4.4,-13.9 0,-5.7 1.7,-10.6 5.2,-14.8 3.4,-4.1 7.9,-6.2 13.4,-6.2 4,-0.2 7.5,1.2 10.6,4 z m -20.8,3.3 c -0.9,1.5 -1.6,3.5 -2,5.8 h 18.3 c -0.3,-2.8 -0.9,-5 -1.6,-6.3 -1.4,-2.5 -3.8,-3.7 -7.1,-3.7 -3.3,-0.1 -5.8,1.3 -7.6,4.2 z"
           id="path15"
           style="fill:#ffffff" /><path
           inkscape:connector-curvature="0"
           class="st1"
           d="m 340.4,234.8 c 2.5,-0.2 4.2,-0.6 5,-1.2 1.3,-0.9 1.9,-2.7 1.9,-5.3 v -23.7 c 0,-2.3 -0.3,-3.7 -0.9,-4.4 -0.6,-0.7 -1.7,-1.1 -3.1,-1.1 -0.7,0 -1.2,0 -1.5,0.1 -0.3,0.1 -0.7,0.2 -1.2,0.3 v -1.6 l 3.5,-1.1 c 1.3,-0.4 3.3,-1.1 6.2,-2.2 2.9,-1 4.4,-1.6 4.5,-1.6 0.2,0 0.3,0.1 0.3,0.2 0,0.2 0,0.4 0,0.9 v 6.2 c 3.2,-2.8 5.9,-4.7 8.2,-5.7 2.3,-1.1 4.7,-1.6 7.1,-1.6 3.3,0 5.9,1.1 7.9,3.2 1,1.2 1.9,2.7 2.6,4.7 2.4,-2.3 4.5,-4 6.2,-5.1 3.1,-1.9 6.2,-2.8 9.4,-2.8 5.2,0 8.6,2 10.4,6 1,2.3 1.5,5.8 1.5,10.7 v 19 c 0,2.2 0.5,3.6 1.5,4.4 1,0.8 2.8,1.3 5.5,1.5 v 1.2 h -21.8 v -1.3 c 2.8,-0.2 4.6,-0.8 5.5,-1.6 0.9,-0.8 1.3,-2.5 1.3,-5 v -19.8 c 0,-3 -0.3,-5.1 -1,-6.6 -1.2,-2.5 -3.5,-3.8 -7,-3.8 -2.1,0 -4.2,0.7 -6.2,2 -1.2,0.8 -2.7,2 -4.4,3.7 v 23.5 c 0,2.5 0.5,4.4 1.4,5.6 0.9,1.3 2.9,2 5.8,2.1 v 1.2 h -22.1 v -1.2 c 3.1,-0.4 5,-1.1 5.8,-2.1 0.8,-1 1.3,-3.6 1.3,-7.7 V 212 c 0,-4.7 -0.3,-7.9 -1,-9.7 -1.1,-3 -3.3,-4.5 -6.8,-4.5 -2,0 -3.9,0.5 -5.8,1.5 -1.9,1 -3.6,2.4 -5,4 v 25.1 c 0,2.3 0.4,3.9 1.3,4.8 0.9,0.9 2.7,1.3 5.6,1.4 v 1.2 h -21.9 z"
           id="path17"
           style="fill:#ffffff" /><path
           inkscape:connector-curvature="0"
           class="st1"
           d="m 423.9,170.2 v 1.7 c -2.5,0 -4.2,0.2 -5.1,0.5 -1.6,0.5 -2.4,1.6 -2.4,3.2 0,0.8 0.3,1.9 0.8,3.4 0.6,1.5 1.6,3.9 3.2,7.2 l 15.6,34.1 14.1,-36.9 c 0.6,-1.6 1.1,-3 1.4,-4.1 0.3,-1.1 0.5,-2.1 0.5,-2.8 0,-1.9 -0.8,-3.2 -2.5,-3.9 -1,-0.4 -2.6,-0.6 -4.8,-0.7 v -1.7 H 465 v 1.7 c -2.1,0.3 -3.7,0.8 -4.7,1.7 -1.5,1.2 -3,3.7 -4.5,7.5 l -22,55 h -1.5 l -24.6,-53.8 c -2.1,-4.6 -3.7,-7.4 -5,-8.5 -1.2,-1.1 -3.1,-1.8 -5.5,-1.9 v -1.7 z"
           id="path19"
           style="fill:#ffffff" /><path
           inkscape:connector-curvature="0"
           class="st1"
           d="m 483.1,194.7 c 3.4,3.1 5.1,7.5 5.1,13.2 h -30.8 c 0.3,7.4 2,12.7 5.1,16.1 3.1,3.4 6.7,5.1 10.9,5.1 3.4,0 6.3,-0.9 8.6,-2.6 2.3,-1.7 4.5,-4.2 6.5,-7.4 l 1.7,0.6 c -1.3,4.1 -3.8,7.8 -7.5,11.2 -3.6,3.4 -8.1,5.2 -13.4,5.2 -6.1,0 -10.8,-2.3 -14.1,-6.8 -3.3,-4.5 -5,-9.7 -5,-15.6 0,-6.4 1.9,-11.9 5.8,-16.6 3.9,-4.7 8.9,-7 15.1,-7 4.6,0 8.6,1.5 12,4.6 z m -23.3,3.7 c -1,1.7 -1.8,3.9 -2.2,6.5 h 20.5 c -0.4,-3.2 -1,-5.6 -1.8,-7.1 -1.6,-2.8 -4.2,-4.2 -8,-4.2 -3.7,0 -6.5,1.6 -8.5,4.8 z"
           id="path21"
           style="fill:#ffffff" /><path
           inkscape:connector-curvature="0"
           class="st1"
           d="m 491.3,234.4 c 3,-0.3 5,-0.8 5.9,-1.6 0.9,-0.8 1.5,-2.4 1.5,-5 v -21.5 c 0,-3.2 -0.3,-5.4 -0.9,-6.8 -0.6,-1.4 -1.7,-2 -3.3,-2 -0.3,0 -0.8,0 -1.3,0.1 -0.5,0.1 -1.1,0.2 -1.7,0.3 v -1.6 c 1.8,-0.6 3.7,-1.3 5.7,-2 1.9,-0.7 3.3,-1.1 4,-1.4 1.6,-0.6 3.3,-1.3 5,-2.1 0.2,0 0.4,0.1 0.4,0.2 0,0.2 0.1,0.5 0.1,1 v 7.8 c 2.1,-2.8 4.1,-5 6,-6.6 1.9,-1.6 3.9,-2.4 6,-2.4 1.7,0 3,0.5 4,1.5 1,1 1.6,2.2 1.6,3.7 0,1.3 -0.4,2.4 -1.2,3.3 -0.8,0.9 -1.8,1.3 -3,1.3 -1.2,0 -2.5,-0.6 -3.7,-1.7 -1.2,-1.1 -2.2,-1.7 -2.9,-1.7 -1.1,0 -2.5,0.9 -4.2,2.7 -1.7,1.8 -2.5,3.7 -2.5,5.6 V 227 c 0,2.7 0.6,4.6 1.9,5.7 1.3,1.1 3.4,1.6 6.5,1.5 v 1.6 h -23.9 z"
           id="path23"
           style="fill:#ffffff" /><path
           inkscape:connector-curvature="0"
           class="st1"
           d="m 525.7,234.7 c 3.5,-0.3 5.7,-0.9 6.6,-1.7 0.9,-0.8 1.4,-3.1 1.4,-6.9 v -22.8 c 0,-2.1 -0.1,-3.5 -0.4,-4.3 -0.5,-1.3 -1.5,-2 -3.1,-2 -0.4,0 -0.7,0 -1,0.1 -0.3,0.1 -1.3,0.3 -2.9,0.8 v -1.5 l 2.1,-0.7 c 5.7,-1.8 9.6,-3.2 11.9,-4.1 0.9,-0.4 1.5,-0.6 1.7,-0.6 0.1,0.2 0.1,0.5 0.1,0.7 V 226 c 0,3.6 0.4,5.9 1.3,6.8 0.9,0.9 2.9,1.5 6,1.8 v 1.3 h -23.6 v -1.2 z m 7.7,-63.9 c 1,-1 2.2,-1.5 3.6,-1.5 1.4,0 2.6,0.5 3.6,1.5 1,1 1.5,2.1 1.5,3.5 0,1.4 -0.5,2.5 -1.5,3.5 -1,1 -2.2,1.4 -3.6,1.4 -1.4,0 -2.6,-0.5 -3.6,-1.4 -1,-1 -1.5,-2.1 -1.5,-3.5 0,-1.4 0.6,-2.5 1.5,-3.5 z"
           id="path25"
           style="fill:#ffffff" /><path
           inkscape:connector-curvature="0"
           class="st1"
           d="m 553.2,234.7 c 3,-0.3 5.1,-0.9 6.1,-1.8 1.1,-0.9 1.6,-2.7 1.6,-5.3 v -46.7 c 0,-2.1 -0.2,-3.6 -0.5,-4.3 -0.6,-1.3 -2,-2 -3.9,-2 -0.5,0 -0.9,0 -1.5,0.1 -0.5,0.1 -1.2,0.2 -2,0.4 v -1.6 c 4.4,-1.1 9.6,-2.7 15.8,-4.6 0.2,0 0.4,0.1 0.4,0.3 0,0.2 0.1,0.6 0.1,1.2 v 57.3 c 0,2.8 0.5,4.6 1.5,5.4 1,0.8 3,1.3 6,1.6 v 1.3 h -23.5 v -1.3 z"
           id="path27"
           style="fill:#ffffff" /><path
           inkscape:connector-curvature="0"
           class="st1"
           d="m 580.1,196.3 c 4.1,-4.4 9.4,-6.6 15.8,-6.6 6.4,0 11.7,2.1 15.9,6.2 4.2,4.1 6.3,9.6 6.3,16.5 0,6.3 -2,11.8 -6.1,16.5 -4.1,4.7 -9.4,7 -15.8,7 -6.2,0 -11.5,-2.2 -15.8,-6.7 -4.3,-4.5 -6.5,-10.1 -6.5,-16.9 0.1,-6.3 2.1,-11.6 6.2,-16 z m 7.8,-1.2 c -3.2,2.9 -4.9,7.9 -4.9,15 0,5.7 1.3,11 3.9,15.9 2.6,4.9 6.2,7.4 10.9,7.4 3.6,0 6.4,-1.6 8.4,-4.9 2,-3.3 2.9,-7.6 2.9,-12.9 0,-5.5 -1.2,-10.7 -3.7,-15.6 -2.5,-4.9 -6.1,-7.3 -10.9,-7.3 -2.5,-0.1 -4.7,0.7 -6.6,2.4 z"
           id="path29"
           style="fill:#ffffff" /><path
           inkscape:connector-curvature="0"
           class="st1"
           d="m 627.9,215.7 c -1.7,-2.5 -2.6,-5.4 -2.6,-8.5 0,-3.8 1.6,-7.5 4.8,-10.9 3.2,-3.4 7.7,-5.2 13.6,-5.2 2.5,0 5.3,0.6 8.3,1.7 3,1.1 5.9,1.7 8.7,1.7 0.7,0 1.8,0 3.3,-0.1 1.5,-0.1 2.5,-0.1 3.2,-0.1 h 0.6 v 4 h -8.9 c 0.6,1.4 1.1,2.6 1.4,3.6 0.6,1.9 0.9,3.7 0.9,5.4 0,3.7 -1.6,7.2 -4.9,10.3 -3.3,3.1 -7.6,4.7 -13.2,4.7 -0.9,0 -2.4,-0.1 -4.7,-0.4 -1,0 -2.3,0.8 -4,2.4 -1.7,1.6 -2.5,2.9 -2.5,3.9 0,1.1 1.2,1.8 3.6,2.3 1.6,0.3 3.3,0.5 5.3,0.5 8.9,0 14.9,0.5 18.1,1.4 5.2,1.5 7.8,4.8 7.8,9.9 0,5.2 -3,9.3 -9.1,12.4 -6.1,3.1 -12.2,4.6 -18.4,4.6 -5.7,0 -10.1,-1.1 -13.4,-3.3 -3.3,-2.2 -5,-4.5 -5,-6.9 0,-1.2 0.4,-2.3 1.3,-3.5 0.9,-1.1 2.6,-2.8 5.2,-5 l 3.4,-2.9 0.6,-0.6 c -1.6,-0.6 -2.8,-1.2 -3.5,-1.7 -1.4,-1 -2.1,-2.2 -2.1,-3.5 0,-1.2 0.6,-2.5 1.8,-4 1.2,-1.5 3.7,-3.8 7.6,-7.1 -3.1,-0.8 -5.5,-2.6 -7.2,-5.1 z m 5.4,36.6 c 3.3,1 7,1.6 11.2,1.6 5.7,0 10.4,-0.9 14,-2.8 3.6,-1.9 5.4,-4.2 5.4,-7 0,-2.2 -1.5,-3.7 -4.4,-4.4 -1.8,-0.4 -5.2,-0.7 -10.2,-0.7 -1.3,0 -2.6,-0.1 -4,-0.1 -1.4,0 -2.7,-0.1 -3.9,-0.2 -0.8,0 -2,-0.2 -3.7,-0.4 -1.7,-0.2 -3,-0.4 -3.8,-0.6 -0.4,0 -1.4,1 -3,3.1 -1.6,2.1 -2.5,4 -2.5,5.8 0.1,2.7 1.7,4.6 4.9,5.7 z m 16.5,-33.8 c 2.1,-1.6 3.1,-4.3 3.1,-8.2 0,-3.1 -0.8,-6.6 -2.5,-10.5 -1.7,-3.9 -4.5,-5.8 -8.4,-5.8 -3.4,0 -5.7,1.5 -7,4.6 -0.7,1.6 -1,3.6 -1,5.9 0,4 1,7.6 3.1,10.8 2,3.2 4.7,4.8 7.9,4.8 1.9,-0.1 3.5,-0.6 4.8,-1.6 z"
           id="path31"
           style="fill:#ffffff" /><path
           inkscape:connector-curvature="0"
           class="st2"
           d="M 215.4,167 C 227.3,143.3 332.5,98.3 464.6,98.8 571.4,99.2 697.3,113 737.6,189 H 673.5 C 647.4,124.9 348.5,79.3 215.5,167.3 Z"
           id="path33"
           style="fill:#ffffff" /><path
           inkscape:connector-curvature="0"
           class="st2"
           d="m 592.55415,242.64186 c -11.9,23.7 -117.1,68.7 -249.2,68.2 -106.8,-0.4 -232.7,-14.2 -272.999997,-90.2 h 64.099997 c 26.1,64.1 325,109.7 458,21.7 z"
           id="path35"
           style="fill:#ffffff" /></g></g><path
       inkscape:connector-curvature="0"
       id="path320-6-3"
       style="fill:#ffffff;fill-opacity:1;fill-rule:nonzero;stroke:none;stroke-width:0.0613305"
       d="m 30.785088,348.8628 -0.88904,2.40602 c -0.0572,0.15434 -0.29033,0.15434 -0.34748,0 l -0.88904,-2.40602 c -0.0191,-0.0516 -0.0634,-0.0914 -0.11932,-0.10803 l -2.35258,-0.68744 c -0.17254,-0.0505 -0.17254,-0.279 0,-0.32947 l 2.35258,-0.68684 c 0.0559,-0.016 0.10024,-0.057 0.11932,-0.10804 l 0.88904,-2.40601 c 0.0572,-0.15494 0.29032,-0.15494 0.34748,0 l 0.88904,2.40601 c 0.0191,0.0511 0.0634,0.092 0.11931,0.10804 l 2.35258,0.68684 c 0.17254,0.0505 0.17254,0.27902 0,0.32947 l -2.35258,0.68744 c -0.0559,0.0166 -0.10024,0.0564 -0.11931,0.10803" /><path
       inkscape:connector-curvature="0"
       id="path320-62-6"
       style="fill:#ffffff;fill-opacity:1;fill-rule:nonzero;stroke:none;stroke-width:0.04103211"
       d="m 147.17864,361.58838 -0.66186,1.4466 c -0.0426,0.0928 -0.21613,0.0928 -0.25868,0 l -0.66186,-1.4466 c -0.0142,-0.031 -0.0472,-0.055 -0.0888,-0.0649 l -1.7514,-0.41332 c -0.12845,-0.0303 -0.12845,-0.16775 0,-0.19809 l 1.7514,-0.41296 c 0.0416,-0.01 0.0746,-0.0342 0.0888,-0.0649 l 0.66186,-1.44661 c 0.0425,-0.0932 0.21613,-0.0932 0.25868,0 l 0.66186,1.44661 c 0.0142,0.0307 0.0472,0.0553 0.0888,0.0649 l 1.75141,0.41296 c 0.12844,0.0303 0.12844,0.16776 0,0.19809 l -1.75141,0.41332 c -0.0416,0.01 -0.0746,0.0339 -0.0888,0.0649" /><text
       xml:space="preserve"
       style="font-style:normal;font-weight:normal;font-size:32px;line-height:1.25;font-family:sans-serif;fill:#000000;fill-opacity:1;stroke:none;stroke-width:0.75"
       x="45.077904"
       y="-340.64871"
       id="text884"
       transform="scale(1,-1)"><tspan
         sodipodi:role="line"
         id="tspan882"
         x="45.077904"
         y="-340.64871"
         style="font-style:italic;font-variant:normal;font-weight:normal;font-stretch:normal;font-size:32px;font-family:'Times New Roman';-inkscape-font-specification:'Times New Roman, Italic';fill:#ffffff;fill-opacity:1;stroke-width:0.75">Verilog</tspan></text><text
       xml:space="preserve"
       style="font-style:normal;font-weight:normal;font-size:15.1255px;line-height:1.25;font-family:sans-serif;fill:#000000;fill-opacity:1;stroke:none;stroke-width:0.354505"
       x="92.491974"
       y="-350.85883"
       id="text884-6"
       transform="scale(0.95899666,-1.0427565)"><tspan
         sodipodi:role="line"
         id="tspan882-4"
         x="92.491974"
         y="-350.85883"
         style="font-style:italic;font-variant:normal;font-weight:normal;font-stretch:normal;font-size:15.1255px;font-family:'Times New Roman';-inkscape-font-specification:'Times New Roman, Italic';fill:#f1efff;fill-opacity:1;stroke-width:0.354505">&amp;</tspan></text><path
       inkscape:connector-curvature="0"
       id="path320-62-5"
       style="fill:#ffffff;fill-opacity:1;fill-rule:nonzero;stroke:none;stroke-width:0.058952"
       d="m 26.893811,360.05351 -0.88904,2.22301 c -0.05715,0.1426 -0.290327,0.1426 -0.34748,0 l -0.889039,-2.22301 c -0.01907,-0.0477 -0.06336,-0.0845 -0.119312,-0.0998 l -2.352588,-0.63515 c -0.172536,-0.0466 -0.172536,-0.25779 0,-0.30441 l 2.352588,-0.6346 c 0.05595,-0.0148 0.100239,-0.0526 0.119312,-0.0998 l 0.889039,-2.22301 c 0.05715,-0.14316 0.290327,-0.14316 0.34748,0 l 0.88904,2.22301 c 0.01907,0.0472 0.06336,0.085 0.119312,0.0998 l 2.352588,0.6346 c 0.172538,0.0466 0.172538,0.25779 0,0.30441 l -2.352588,0.63515 c -0.05595,0.0154 -0.10024,0.0521 -0.119312,0.0998" /><path
       inkscape:connector-curvature="0"
       id="path320-62-4"
       style="fill:#ffffff;fill-opacity:1;fill-rule:nonzero;stroke:none;stroke-width:0.058952"
       d="m 24.510336,460.42428 -0.88904,2.22301 c -0.05715,0.1426 -0.290327,0.1426 -0.34748,0 l -0.889039,-2.22301 c -0.01907,-0.0477 -0.06336,-0.0845 -0.119312,-0.0998 l -2.352588,-0.63515 c -0.172536,-0.0466 -0.172536,-0.25779 0,-0.30441 l 2.352588,-0.6346 c 0.05595,-0.0148 0.100239,-0.0526 0.119312,-0.0998 l 0.889039,-2.22301 c 0.05715,-0.14316 0.290327,-0.14316 0.34748,0 l 0.88904,2.22301 c 0.01907,0.0472 0.06336,0.085 0.119312,0.0998 l 2.352588,0.6346 c 0.172538,0.0466 0.172538,0.25779 0,0.30441 l -2.352588,0.63515 c -0.05595,0.0154 -0.10024,0.0521 -0.119312,0.0998" /></g></svg>
